<?xml version="1.0" encoding="UTF-8" standalone="no"?><!DOCTYPE svg PUBLIC "-//W3C//DTD SVG 1.1//EN" "http://www.w3.org/Graphics/SVG/1.1/DTD/svg11.dtd"><svg width="100%" height="100%" viewBox="0 0 487 204" version="1.1" xmlns="http://www.w3.org/2000/svg" xmlns:xlink="http://www.w3.org/1999/xlink" xml:space="preserve" xmlns:serif="http://www.serif.com/" style="fill-rule:evenodd;clip-rule:evenodd;stroke-linecap:round;stroke-linejoin:round;stroke-miterlimit:1.5;"><rect x="356.807" y="20.428" width="129.253" height="181.788" style="fill-opacity:0;"/><clipPath id="_clip1"><rect x="356.807" y="20.428" width="129.253" height="181.788"/></clipPath><g clip-path="url(#_clip1)"><circle cx="421.434" cy="198.87" r="7.865" style="fill:#7882ff;fill-opacity:0.16;"/><circle cx="421.434" cy="136.596" r="21.217" style="fill:#7882ff;fill-opacity:0.4;"/></g><rect x="356.807" y="20.428" width="129.253" height="181.788" style="fill:none;stroke:#000;stroke-width:1.87px;"/><path d="M421.434,184.016l0,-145.388" style="fill:none;stroke:#000;stroke-opacity:0.43;stroke-width:2.16px;stroke-dasharray:2.16,2.16;"/><path d="M408.356,13.701c0,-7.218 5.86,-13.077 13.078,-13.077c7.217,0 13.077,5.859 13.077,13.077" style="fill:none;stroke:#4d5cc1;stroke-width:1.25px;stroke-dasharray:0,0.06,0,0;"/><g transform="matrix(0.149661,0,0,0.149661,286.545,-95.3019)"><text x="854.2px" y="727.966px" style="font-family:'Bahnschrift', sans-serif;font-size:50px;fill:#4d5cc1;">180</text><text x="926.538px" y="727.966px" style="font-family:'Bahnschrift', sans-serif;font-size:60.417px;fill:#4d5cc1;">°</text></g><path d="M142.871,20.428l64.627,10.107l64.627,-10.107l0,181.788l-64.627,-10.107l-64.627,10.107l0,-181.788Z" style="fill-opacity:0.2;"/><clipPath id="_clip2"><path d="M142.871,20.428l64.627,10.107l64.627,-10.107l0,181.788l-64.627,-10.107l-64.627,10.107l0,-181.788Z"/></clipPath><g clip-path="url(#_clip2)"><circle cx="207.498" cy="187.749" r="7.865" style="fill:#7882ff;fill-opacity:0.2;"/></g><path d="M142.871,20.428l64.627,10.107l64.627,-10.107l0,181.788l-64.627,-10.107l-64.627,10.107l0,-181.788Z" style="fill:none;stroke:#000;stroke-width:1.87px;"/><path d="M207.498,184.016l0,-145.388" style="fill:none;stroke:#000;stroke-opacity:0.43;stroke-width:2.16px;stroke-dasharray:2.16,2.16;"/><path d="M194.42,23.508c0,-7.217 5.86,-13.077 13.078,-13.077c7.218,0 13.077,5.86 13.077,13.077" style="fill:none;stroke:#4d5cc1;stroke-width:1.25px;stroke-dasharray:0,0.06,0,0;"/><g transform="matrix(0.149661,0,0,0.149661,70.5726,-85.4946)"><text x="854.2px" y="727.966px" style="font-family:'Bahnschrift', sans-serif;font-size:50px;fill:#4d5cc1;">~110</text><text x="940.723px" y="727.966px" style="font-family:'Bahnschrift', sans-serif;font-size:60.417px;fill:#4d5cc1;">°</text></g><path d="M0.935,20.428l28.627,10.107l28.627,-10.107l0,181.788l-28.627,-10.107l-28.627,10.107l0,-181.788Z" style="fill-opacity:0.4;"/><clipPath id="_clip3"><path d="M0.935,20.428l28.627,10.107l28.627,-10.107l0,181.788l-28.627,-10.107l-28.627,10.107l0,-181.788Z"/></clipPath><g clip-path="url(#_clip3)"><circle cx="28.999" cy="187.749" r="7.865" style="fill:#7882ff;fill-opacity:0.8;"/></g><path d="M0.935,20.428l28.627,10.107l28.627,-10.107l0,181.788l-28.627,-10.107l-28.627,10.107l0,-181.788Z" style="fill:none;stroke:#000;stroke-width:1.87px;"/><path d="M29.562,184.016l0,-145.388" style="fill:none;stroke:#000;stroke-opacity:0.43;stroke-width:2.16px;stroke-dasharray:2.16,2.16;"/><path d="M16.484,23.508c0,-7.217 5.86,-13.077 13.078,-13.077c7.218,0 13.078,5.86 13.078,13.077" style="fill:none;stroke:#4d5cc1;stroke-width:1.25px;stroke-dasharray:0,0.06,0,0;"/><g transform="matrix(0.149661,0,0,0.149661,-106.092,-85.4946)"><text x="854.2px" y="727.966px" style="font-family:'Bahnschrift', sans-serif;font-size:50px;fill:#4d5cc1;">~45</text><text x="935.547px" y="727.966px" style="font-family:'Bahnschrift', sans-serif;font-size:60.417px;fill:#4d5cc1;">°</text></g><circle cx="421.434" cy="81.542" r="33.838" style="fill:#7882ff;fill-opacity:0.8;"/><circle cx="207.498" cy="136.596" r="21.217" style="fill:#7882ff;fill-opacity:0.8;"/><path d="M462.524,179.884l0,-58.671l-7.253,7.253l7.253,-7.253l7.253,7.253" style="fill:none;stroke:#7882ff;stroke-width:2px;stroke-dasharray:0,0.1,0,0;"/><path d="M67.759,115.379l58.671,0l-7.253,-7.253l7.253,7.253l-7.253,7.253" style="fill:none;stroke:#4d5cc1;stroke-width:2px;stroke-dasharray:0,0.1,0,0;"/><path d="M283.054,115.379l58.671,0l-7.253,-7.253l7.253,7.253l-7.253,7.253" style="fill:none;stroke:#4d5cc1;stroke-width:2px;stroke-dasharray:0,0.1,0,0;"/><path d="M235.968,185.076l0,-32.378l-7.253,7.253l7.253,-7.253l7.253,7.253" style="fill:none;stroke:#7882ff;stroke-width:2px;stroke-dasharray:0,0.1,0,0;"/></svg>