<?xml version="1.0" encoding="UTF-8" standalone="no"?>
<!DOCTYPE svg PUBLIC "-//W3C//DTD SVG 1.1//EN" "http://www.w3.org/Graphics/SVG/1.1/DTD/svg11.dtd">
<svg width="100%" height="100%" viewBox="0 0 2201 465" version="1.1" xmlns="http://www.w3.org/2000/svg" xmlns:xlink="http://www.w3.org/1999/xlink" xml:space="preserve" xmlns:serif="http://www.serif.com/" style="fill-rule:evenodd;clip-rule:evenodd;stroke-linecap:round;stroke-linejoin:round;stroke-miterlimit:1.5;">
    <g transform="matrix(1,0,0,1,-211.363,-1068)">
        <g transform="matrix(1.21954,0,0,1.21954,-823.205,525.406)">
            <path d="M850.409,730.404L1101.13,730.404" style="fill:none;stroke:black;stroke-width:4.17px;stroke-dasharray:0,0.21,0,0;"/>
        </g>
        <g transform="matrix(7.46754e-17,-1.21954,1.21954,7.46754e-17,-676.854,2443.34)">
            <path d="M850.409,730.404L1101.13,730.404" style="fill:none;stroke:black;stroke-width:4.17px;stroke-dasharray:0,0.21,0,0;"/>
        </g>
        <g transform="matrix(1.21954,0,0,1.21954,1066.67,386.471)">
            <path d="M850.409,730.404L1101.13,730.404" style="fill:none;stroke:black;stroke-width:4.17px;stroke-dasharray:0,0.21,0,0;"/>
        </g>
        <g transform="matrix(-1.21954,-1.49351e-16,1.49351e-16,-1.21954,3130.13,2167.99)">
            <path d="M850.409,730.404L1101.13,730.404" style="fill:none;stroke:black;stroke-width:4.17px;stroke-dasharray:0,0.21,0,0;"/>
        </g>
        <g transform="matrix(-0.31564,1.17799,-1.17799,-0.31564,1823.77,349.599)">
            <path d="M850.409,730.404L1101.13,730.404" style="fill:none;stroke:black;stroke-width:4.17px;stroke-dasharray:0,0.21,0,0;"/>
        </g>
        <g transform="matrix(0.31564,1.17799,-1.17799,0.31564,1294.24,-111.491)">
            <path d="M850.409,730.404L1101.13,730.404" style="fill:none;stroke:black;stroke-width:4.17px;stroke-dasharray:0,0.21,0,0;"/>
        </g>
        <g transform="matrix(0.862346,-0.862346,0.862346,0.862346,106.567,1480.08)">
            <path d="M850.409,730.404L1101.13,730.404" style="fill:none;stroke:black;stroke-width:4.17px;stroke-dasharray:0,0.21,0,0;"/>
        </g>
        <g transform="matrix(-0.862346,-0.862346,0.862346,-0.862346,1564.64,2739.8)">
            <path d="M850.409,730.404L1101.13,730.404" style="fill:none;stroke:black;stroke-width:4.17px;stroke-dasharray:0,0.21,0,0;"/>
        </g>
        <g transform="matrix(1.21954,7.46754e-17,-7.46754e-17,1.21954,-173.489,401.959)">
            <path d="M850.409,730.404L1101.13,730.404" style="fill:none;stroke:black;stroke-width:4.17px;stroke-dasharray:0,0.21,0,0;"/>
        </g>
        <g transform="matrix(-1.21954,-1.42373e-16,1.42373e-16,-1.21954,2206.49,2167.99)">
            <path d="M850.409,730.404L1101.13,730.404" style="fill:none;stroke:black;stroke-width:4.17px;stroke-dasharray:0,0.21,0,0;"/>
        </g>
        <g transform="matrix(1,0,0,1,4.75043,72.8048)">
            <text x="302.786px" y="1459.33px" style="font-family:'ArialMT', 'Arial', sans-serif;font-size:41.667px;">T<tspan x="323.619px 346.792px " y="1459.33px 1459.33px ">ab</tspan>le</text>
        </g>
        <g transform="matrix(1,0,0,1,344.091,72.8048)">
            <text x="313.212px" y="1459.33px" style="font-family:'ArialMT', 'Arial', sans-serif;font-size:41.667px;">T<tspan x="334.046px 357.219px " y="1459.33px 1459.33px ">en</tspan>t</text>
        </g>
        <g transform="matrix(1,0,0,1,666.343,72.8048)">
            <text x="296.997px" y="1459.33px" style="font-family:'ArialMT', 'Arial', sans-serif;font-size:41.667px;">T<tspan x="317.831px 341.004px " y="1459.33px 1459.33px ">ab</tspan>let</text>
        </g>
        <g transform="matrix(1,0,0,1,1112.87,72.8048)">
            <text x="305.105px" y="1459.33px" style="font-family:'ArialMT', 'Arial', sans-serif;font-size:41.667px;">Book</text>
        </g>
        <g transform="matrix(1,0,0,1,1716.94,72.8048)">
            <text x="271.29px" y="1459.33px" style="font-family:'ArialMT', 'Arial', sans-serif;font-size:41.667px;">Flat/Monitor</text>
        </g>
        <g transform="matrix(-1.21954,1.49351e-16,-1.49351e-16,-1.21954,2258.77,2688.33)">
            <path d="M1309.59,1252.78C1317.01,1260.16 1321.61,1270.38 1321.61,1281.66C1321.61,1304.14 1303.36,1322.39 1280.88,1322.39C1258.41,1322.39 1240.16,1304.14 1240.16,1281.66C1240.16,1271.04 1244.23,1261.36 1250.91,1254.1" style="fill:none;stroke:rgb(201,205,255);stroke-width:12.5px;stroke-dasharray:0,0.63,0,0;"/>
        </g>
        <g transform="matrix(1.05649e-15,0.884578,-0.884578,1.05649e-15,2005.3,151.145)">
            <path d="M1309.59,1252.78C1317.01,1260.16 1321.61,1270.38 1321.61,1281.66C1321.61,1304.14 1303.36,1322.39 1280.88,1322.39C1258.41,1322.39 1240.16,1304.14 1240.16,1281.66C1240.16,1271.04 1244.23,1261.36 1250.91,1254.1" style="fill:none;stroke:rgb(201,205,255);stroke-width:12.5px;stroke-dasharray:0,0.63,0,0;"/>
        </g>
        <g transform="matrix(1.21954,0,0,1.21954,-96.6277,-220.144)">
            <path d="M1250.91,1254.1C1258.35,1246.01 1269.03,1240.94 1280.88,1240.94C1292.08,1240.94 1302.22,1245.46 1309.59,1252.78" style="fill:none;stroke:rgb(201,205,255);stroke-width:12.5px;stroke-dasharray:0,0.63,0,0;"/>
        </g>
        <g transform="matrix(1.21954,0,0,1.21954,540.063,-273.241)">
            <path d="M1250.91,1254.1C1258.35,1246.01 1269.03,1240.94 1280.88,1240.94C1292.08,1240.94 1302.22,1245.46 1309.59,1252.78" style="fill:none;stroke:rgb(201,205,255);stroke-width:12.5px;stroke-dasharray:0,0.63,0,0;"/>
        </g>
        <g transform="matrix(1.21954,0,0,1.21954,-46.9607,-250.778)">
            <path d="M230.649,1304.17L274.438,1304.17L274.438,1350.92" style="fill:none;stroke:rgb(201,205,255);stroke-width:12.5px;stroke-dasharray:0,0.63,0,0;"/>
        </g>
    </g>
</svg>
