<?xml version="1.0" encoding="UTF-8" standalone="no"?>
<!DOCTYPE svg PUBLIC "-//W3C//DTD SVG 1.1//EN" "http://www.w3.org/Graphics/SVG/1.1/DTD/svg11.dtd">
<svg width="100%" height="100%" viewBox="0 0 1455 600" version="1.1" xmlns="http://www.w3.org/2000/svg" xmlns:xlink="http://www.w3.org/1999/xlink" xml:space="preserve" xmlns:serif="http://www.serif.com/" style="fill-rule:evenodd;clip-rule:evenodd;stroke-linecap:round;stroke-linejoin:round;stroke-miterlimit:1.5;">
    <g transform="matrix(1,0,0,1,-47.8904,-661.829)">
        <g transform="matrix(2.23149,0,0,2.23149,-1525.03,-770.541)">
            <g transform="matrix(1,0,-0.26484,1,240.534,0)">
                <rect x="707.067" y="682.456" width="533.09" height="225.768" style="fill-opacity:0;stroke:black;stroke-width:5px;stroke-dasharray:0,0.25,0,0;"/>
            </g>
            <g transform="matrix(1,0,0.240073,0.906484,-104.047,63.8205)">
                <path d="M1132.77,908.224L1240.16,908.224L1240.16,682.456L707.067,682.456" style="fill-opacity:0;stroke:black;stroke-width:5px;stroke-dasharray:0,0.25,0,0;"/>
            </g>
            <g transform="matrix(1,0,-0.243117,1,153.572,33.2529)">
                <rect x="779.751" y="697.959" width="59.116" height="65.45" style="fill:rgb(107,116,225);stroke:black;stroke-width:2.08px;stroke-dasharray:0,0.1,0,0;"/>
            </g>
            <g transform="matrix(1.17471,0,-0.285592,1.17471,36.7628,-102.249)">
                <circle cx="816.424" cy="737.362" r="20.789" style="fill:rgb(201,205,255);stroke:black;stroke-width:1.06px;stroke-dasharray:0,0.05,0,0;"/>
            </g>
            <g transform="matrix(1,0,-0.243117,1,152.945,31.9887)">
                <circle cx="802.726" cy="722.419" r="1.833" style="fill:rgb(201,205,255);stroke:black;stroke-width:1.25px;stroke-dasharray:0,0.06,0,0;"/>
            </g>
            <g transform="matrix(1,0,-0.243117,1,167.979,31.9887)">
                <circle cx="802.726" cy="722.419" r="1.833" style="fill:rgb(201,205,255);stroke:black;stroke-width:1.25px;stroke-dasharray:0,0.06,0,0;"/>
            </g>
            <g transform="matrix(0.432134,0,-0.105059,0.432134,465.3,446.724)">
                <path d="M940.469,745.889C940.469,757.831 930.774,767.526 918.832,767.526C906.89,767.526 897.195,757.831 897.195,745.889" style="fill:rgb(201,205,255);stroke:black;stroke-width:3.33px;stroke-dasharray:0,0.17,0,0;"/>
            </g>
            <g transform="matrix(1,0,-0.243117,1,228.6,33.2529)">
                <rect x="779.751" y="697.959" width="59.116" height="65.45" style="fill:rgb(107,116,225);stroke:black;stroke-width:2.08px;stroke-dasharray:0,0.1,0,0;"/>
            </g>
            <g transform="matrix(1.17471,0,-0.285592,1.17471,111.791,-102.249)">
                <circle cx="816.424" cy="737.362" r="20.789" style="fill:rgb(201,205,255);stroke:black;stroke-width:1.06px;stroke-dasharray:0,0.05,0,0;"/>
            </g>
            <g transform="matrix(1,0,-0.243117,1,227.974,31.9887)">
                <circle cx="802.726" cy="722.419" r="1.833" style="fill:rgb(201,205,255);stroke:black;stroke-width:1.25px;stroke-dasharray:0,0.06,0,0;"/>
            </g>
            <g transform="matrix(1,0,-0.243117,1,243.007,31.9887)">
                <circle cx="802.726" cy="722.419" r="1.833" style="fill:rgb(201,205,255);stroke:black;stroke-width:1.25px;stroke-dasharray:0,0.06,0,0;"/>
            </g>
            <g transform="matrix(0.432134,0,-0.105059,0.432134,540.328,446.724)">
                <path d="M940.469,745.889C940.469,757.831 930.774,767.526 918.832,767.526C906.89,767.526 897.195,757.831 897.195,745.889" style="fill:rgb(201,205,255);stroke:black;stroke-width:3.33px;stroke-dasharray:0,0.17,0,0;"/>
            </g>
            <g transform="matrix(1,0,-0.243117,1,303.628,33.2529)">
                <rect x="779.751" y="697.959" width="59.116" height="65.45" style="fill:rgb(107,116,225);stroke:black;stroke-width:2.08px;stroke-dasharray:0,0.1,0,0;"/>
            </g>
            <g transform="matrix(1.17471,0,-0.285592,1.17471,186.819,-102.249)">
                <circle cx="816.424" cy="737.362" r="20.789" style="fill:rgb(201,205,255);stroke:black;stroke-width:1.06px;stroke-dasharray:0,0.05,0,0;"/>
            </g>
            <g transform="matrix(1,0,-0.243117,1,303.002,31.9887)">
                <circle cx="802.726" cy="722.419" r="1.833" style="fill:rgb(201,205,255);stroke:black;stroke-width:1.25px;stroke-dasharray:0,0.06,0,0;"/>
            </g>
            <g transform="matrix(1,0,-0.243117,1,318.035,31.9887)">
                <circle cx="802.726" cy="722.419" r="1.833" style="fill:rgb(201,205,255);stroke:black;stroke-width:1.25px;stroke-dasharray:0,0.06,0,0;"/>
            </g>
            <g transform="matrix(0.432134,0,-0.105059,0.432134,615.356,446.724)">
                <path d="M940.469,745.889C940.469,757.831 930.774,767.526 918.832,767.526C906.89,767.526 897.195,757.831 897.195,745.889" style="fill:rgb(201,205,255);stroke:black;stroke-width:3.33px;stroke-dasharray:0,0.17,0,0;"/>
            </g>
            <g transform="matrix(1,0,-0.243117,1,378.657,33.2529)">
                <rect x="779.751" y="697.959" width="59.116" height="65.45" style="fill:rgb(107,116,225);stroke:black;stroke-width:2.08px;stroke-dasharray:0,0.1,0,0;"/>
            </g>
            <g transform="matrix(1.17471,0,-0.285592,1.17471,261.848,-102.249)">
                <circle cx="816.424" cy="737.362" r="20.789" style="fill:rgb(201,205,255);stroke:black;stroke-width:1.06px;stroke-dasharray:0,0.05,0,0;"/>
            </g>
            <g transform="matrix(1,0,-0.243117,1,378.03,31.9887)">
                <circle cx="802.726" cy="722.419" r="1.833" style="fill:rgb(201,205,255);stroke:black;stroke-width:1.25px;stroke-dasharray:0,0.06,0,0;"/>
            </g>
            <g transform="matrix(1,0,-0.243117,1,393.064,31.9887)">
                <circle cx="802.726" cy="722.419" r="1.833" style="fill:rgb(201,205,255);stroke:black;stroke-width:1.25px;stroke-dasharray:0,0.06,0,0;"/>
            </g>
            <g transform="matrix(0.432134,0,-0.105059,0.432134,690.385,446.724)">
                <path d="M940.469,745.889C940.469,757.831 930.774,767.526 918.832,767.526C906.89,767.526 897.195,757.831 897.195,745.889" style="fill:rgb(201,205,255);stroke:black;stroke-width:3.33px;stroke-dasharray:0,0.17,0,0;"/>
            </g>
            <g transform="matrix(1,0,-0.243117,1,453.685,33.2529)">
                <rect x="779.751" y="697.959" width="59.116" height="65.45" style="fill:rgb(107,116,225);stroke:black;stroke-width:2.08px;stroke-dasharray:0,0.1,0,0;"/>
            </g>
            <g transform="matrix(1.17471,0,-0.285592,1.17471,336.876,-102.249)">
                <circle cx="816.424" cy="737.362" r="20.789" style="fill:rgb(201,205,255);stroke:black;stroke-width:1.06px;stroke-dasharray:0,0.05,0,0;"/>
            </g>
            <g transform="matrix(1,0,-0.243117,1,453.059,31.9887)">
                <circle cx="802.726" cy="722.419" r="1.833" style="fill:rgb(201,205,255);stroke:black;stroke-width:1.25px;stroke-dasharray:0,0.06,0,0;"/>
            </g>
            <g transform="matrix(1,0,-0.243117,1,468.092,31.9887)">
                <circle cx="802.726" cy="722.419" r="1.833" style="fill:rgb(201,205,255);stroke:black;stroke-width:1.25px;stroke-dasharray:0,0.06,0,0;"/>
            </g>
            <g transform="matrix(0.432134,0,-0.105059,0.432134,765.413,446.724)">
                <path d="M940.469,745.889C940.469,757.831 930.774,767.526 918.832,767.526C906.89,767.526 897.195,757.831 897.195,745.889" style="fill:rgb(201,205,255);stroke:black;stroke-width:3.33px;stroke-dasharray:0,0.17,0,0;"/>
            </g>
            <g transform="matrix(1,0,-0.243117,1,528.713,33.2529)">
                <rect x="779.751" y="697.959" width="59.116" height="65.45" style="fill:rgb(107,116,225);stroke:black;stroke-width:2.08px;stroke-dasharray:0,0.1,0,0;"/>
            </g>
            <g transform="matrix(1.17471,0,-0.285592,1.17471,411.904,-102.249)">
                <circle cx="816.424" cy="737.362" r="20.789" style="fill:rgb(201,205,255);stroke:black;stroke-width:1.06px;stroke-dasharray:0,0.05,0,0;"/>
            </g>
            <g transform="matrix(1,0,-0.243117,1,528.087,31.9887)">
                <circle cx="802.726" cy="722.419" r="1.833" style="fill:rgb(201,205,255);stroke:black;stroke-width:1.25px;stroke-dasharray:0,0.06,0,0;"/>
            </g>
            <g transform="matrix(1,0,-0.243117,1,543.12,31.9887)">
                <circle cx="802.726" cy="722.419" r="1.833" style="fill:rgb(201,205,255);stroke:black;stroke-width:1.25px;stroke-dasharray:0,0.06,0,0;"/>
            </g>
            <g transform="matrix(0.432134,0,-0.105059,0.432134,840.441,446.724)">
                <path d="M940.469,745.889C940.469,757.831 930.774,767.526 918.832,767.526C906.89,767.526 897.195,757.831 897.195,745.889" style="fill:rgb(201,205,255);stroke:black;stroke-width:3.33px;stroke-dasharray:0,0.17,0,0;"/>
            </g>
            <g transform="matrix(1,0,-0.243117,1,603.742,33.2529)">
                <rect x="779.751" y="697.959" width="59.116" height="65.45" style="fill:rgb(107,116,225);stroke:black;stroke-width:2.08px;stroke-dasharray:0,0.1,0,0;"/>
            </g>
            <g transform="matrix(1.17471,0,-0.285592,1.17471,486.933,-102.249)">
                <circle cx="816.424" cy="737.362" r="20.789" style="fill:rgb(201,205,255);stroke:black;stroke-width:1.06px;stroke-dasharray:0,0.05,0,0;"/>
            </g>
            <g transform="matrix(1,0,-0.243117,1,603.115,31.9887)">
                <circle cx="802.726" cy="722.419" r="1.833" style="fill:rgb(201,205,255);stroke:black;stroke-width:1.25px;stroke-dasharray:0,0.06,0,0;"/>
            </g>
            <g transform="matrix(1,0,-0.243117,1,618.149,31.9887)">
                <circle cx="802.726" cy="722.419" r="1.833" style="fill:rgb(201,205,255);stroke:black;stroke-width:1.25px;stroke-dasharray:0,0.06,0,0;"/>
            </g>
            <g transform="matrix(0.432134,0,-0.105059,0.432134,915.47,446.724)">
                <path d="M940.469,745.889C940.469,757.831 930.774,767.526 918.832,767.526C906.89,767.526 897.195,757.831 897.195,745.889" style="fill:rgb(201,205,255);stroke:black;stroke-width:3.33px;stroke-dasharray:0,0.17,0,0;"/>
            </g>
            <g transform="matrix(1,0,-0.243117,1,133.514,113.482)">
                <rect x="779.751" y="697.959" width="59.116" height="65.45" style="fill:rgb(107,116,225);stroke:black;stroke-width:2.08px;stroke-dasharray:0,0.1,0,0;"/>
            </g>
            <g transform="matrix(1.17471,0,-0.285592,1.17471,16.7055,-22.0194)">
                <circle cx="816.424" cy="737.362" r="20.789" style="fill:rgb(201,205,255);stroke:black;stroke-width:1.06px;stroke-dasharray:0,0.05,0,0;"/>
            </g>
            <g transform="matrix(1,0,-0.243117,1,132.888,112.218)">
                <circle cx="802.726" cy="722.419" r="1.833" style="fill:rgb(201,205,255);stroke:black;stroke-width:1.25px;stroke-dasharray:0,0.06,0,0;"/>
            </g>
            <g transform="matrix(1,0,-0.243117,1,147.922,112.218)">
                <circle cx="802.726" cy="722.419" r="1.833" style="fill:rgb(201,205,255);stroke:black;stroke-width:1.25px;stroke-dasharray:0,0.06,0,0;"/>
            </g>
            <g transform="matrix(0.432134,0,-0.105059,0.432134,445.243,526.953)">
                <path d="M940.469,745.889C940.469,757.831 930.774,767.526 918.832,767.526C906.89,767.526 897.195,757.831 897.195,745.889" style="fill:rgb(201,205,255);stroke:black;stroke-width:3.33px;stroke-dasharray:0,0.17,0,0;"/>
            </g>
            <g transform="matrix(1,0,-0.243117,1,208.543,113.482)">
                <rect x="779.751" y="697.959" width="59.116" height="65.45" style="fill:rgb(107,116,225);stroke:black;stroke-width:2.08px;stroke-dasharray:0,0.1,0,0;"/>
            </g>
            <g transform="matrix(1.17471,0,-0.285592,1.17471,91.7338,-22.0194)">
                <circle cx="816.424" cy="737.362" r="20.789" style="fill:rgb(201,205,255);stroke:black;stroke-width:1.06px;stroke-dasharray:0,0.05,0,0;"/>
            </g>
            <g transform="matrix(1,0,-0.243117,1,207.916,112.218)">
                <circle cx="802.726" cy="722.419" r="1.833" style="fill:rgb(201,205,255);stroke:black;stroke-width:1.25px;stroke-dasharray:0,0.06,0,0;"/>
            </g>
            <g transform="matrix(1,0,-0.243117,1,222.95,112.218)">
                <circle cx="802.726" cy="722.419" r="1.833" style="fill:rgb(201,205,255);stroke:black;stroke-width:1.25px;stroke-dasharray:0,0.06,0,0;"/>
            </g>
            <g transform="matrix(0.432134,0,-0.105059,0.432134,520.271,526.953)">
                <path d="M940.469,745.889C940.469,757.831 930.774,767.526 918.832,767.526C906.89,767.526 897.195,757.831 897.195,745.889" style="fill:rgb(201,205,255);stroke:black;stroke-width:3.33px;stroke-dasharray:0,0.17,0,0;"/>
            </g>
            <g transform="matrix(1,0,-0.243117,1,283.571,113.482)">
                <rect x="779.751" y="697.959" width="59.116" height="65.45" style="fill:rgb(107,116,225);stroke:black;stroke-width:2.08px;stroke-dasharray:0,0.1,0,0;"/>
            </g>
            <g transform="matrix(1.17471,0,-0.285592,1.17471,166.762,-22.0194)">
                <circle cx="816.424" cy="737.362" r="20.789" style="fill:rgb(201,205,255);stroke:black;stroke-width:1.06px;stroke-dasharray:0,0.05,0,0;"/>
            </g>
            <g transform="matrix(1,0,-0.243117,1,282.945,112.218)">
                <circle cx="802.726" cy="722.419" r="1.833" style="fill:rgb(201,205,255);stroke:black;stroke-width:1.25px;stroke-dasharray:0,0.06,0,0;"/>
            </g>
            <g transform="matrix(1,0,-0.243117,1,297.978,112.218)">
                <circle cx="802.726" cy="722.419" r="1.833" style="fill:rgb(201,205,255);stroke:black;stroke-width:1.25px;stroke-dasharray:0,0.06,0,0;"/>
            </g>
            <g transform="matrix(0.432134,0,-0.105059,0.432134,595.299,526.953)">
                <path d="M940.469,745.889C940.469,757.831 930.774,767.526 918.832,767.526C906.89,767.526 897.195,757.831 897.195,745.889" style="fill:rgb(201,205,255);stroke:black;stroke-width:3.33px;stroke-dasharray:0,0.17,0,0;"/>
            </g>
            <g transform="matrix(1,0,-0.243117,1,358.599,113.482)">
                <rect x="779.751" y="697.959" width="59.116" height="65.45" style="fill:rgb(107,116,225);stroke:black;stroke-width:2.08px;stroke-dasharray:0,0.1,0,0;"/>
            </g>
            <g transform="matrix(1.17471,0,-0.285592,1.17471,241.79,-22.0194)">
                <circle cx="816.424" cy="737.362" r="20.789" style="fill:rgb(201,205,255);stroke:black;stroke-width:1.06px;stroke-dasharray:0,0.05,0,0;"/>
            </g>
            <g transform="matrix(1,0,-0.243117,1,357.973,112.218)">
                <circle cx="802.726" cy="722.419" r="1.833" style="fill:rgb(201,205,255);stroke:black;stroke-width:1.25px;stroke-dasharray:0,0.06,0,0;"/>
            </g>
            <g transform="matrix(1,0,-0.243117,1,373.007,112.218)">
                <circle cx="802.726" cy="722.419" r="1.833" style="fill:rgb(201,205,255);stroke:black;stroke-width:1.25px;stroke-dasharray:0,0.06,0,0;"/>
            </g>
            <g transform="matrix(0.432134,0,-0.105059,0.432134,670.327,526.953)">
                <path d="M940.469,745.889C940.469,757.831 930.774,767.526 918.832,767.526C906.89,767.526 897.195,757.831 897.195,745.889" style="fill:rgb(201,205,255);stroke:black;stroke-width:3.33px;stroke-dasharray:0,0.17,0,0;"/>
            </g>
            <g transform="matrix(1,0,-0.243117,1,433.628,113.482)">
                <rect x="779.751" y="697.959" width="59.116" height="65.45" style="fill:rgb(107,116,225);stroke:black;stroke-width:2.08px;stroke-dasharray:0,0.1,0,0;"/>
            </g>
            <g transform="matrix(1.17471,0,-0.285592,1.17471,316.819,-22.0194)">
                <circle cx="816.424" cy="737.362" r="20.789" style="fill:rgb(201,205,255);stroke:black;stroke-width:1.06px;stroke-dasharray:0,0.05,0,0;"/>
            </g>
            <g transform="matrix(1,0,-0.243117,1,433.001,112.218)">
                <circle cx="802.726" cy="722.419" r="1.833" style="fill:rgb(201,205,255);stroke:black;stroke-width:1.25px;stroke-dasharray:0,0.06,0,0;"/>
            </g>
            <g transform="matrix(1,0,-0.243117,1,448.035,112.218)">
                <circle cx="802.726" cy="722.419" r="1.833" style="fill:rgb(201,205,255);stroke:black;stroke-width:1.25px;stroke-dasharray:0,0.06,0,0;"/>
            </g>
            <g transform="matrix(0.432134,0,-0.105059,0.432134,745.356,526.953)">
                <path d="M940.469,745.889C940.469,757.831 930.774,767.526 918.832,767.526C906.89,767.526 897.195,757.831 897.195,745.889" style="fill:rgb(201,205,255);stroke:black;stroke-width:3.33px;stroke-dasharray:0,0.17,0,0;"/>
            </g>
            <g transform="matrix(1,0,-0.243117,1,508.656,113.482)">
                <rect x="779.751" y="697.959" width="59.116" height="65.45" style="fill:rgb(107,116,225);stroke:black;stroke-width:2.08px;stroke-dasharray:0,0.1,0,0;"/>
            </g>
            <g transform="matrix(1.17471,0,-0.285592,1.17471,391.847,-22.0194)">
                <circle cx="816.424" cy="737.362" r="20.789" style="fill:rgb(201,205,255);stroke:black;stroke-width:1.06px;stroke-dasharray:0,0.05,0,0;"/>
            </g>
            <g transform="matrix(1,0,-0.243117,1,508.03,112.218)">
                <circle cx="802.726" cy="722.419" r="1.833" style="fill:rgb(201,205,255);stroke:black;stroke-width:1.25px;stroke-dasharray:0,0.06,0,0;"/>
            </g>
            <g transform="matrix(1,0,-0.243117,1,523.063,112.218)">
                <circle cx="802.726" cy="722.419" r="1.833" style="fill:rgb(201,205,255);stroke:black;stroke-width:1.25px;stroke-dasharray:0,0.06,0,0;"/>
            </g>
            <g transform="matrix(0.432134,0,-0.105059,0.432134,820.384,526.953)">
                <path d="M940.469,745.889C940.469,757.831 930.774,767.526 918.832,767.526C906.89,767.526 897.195,757.831 897.195,745.889" style="fill:rgb(201,205,255);stroke:black;stroke-width:3.33px;stroke-dasharray:0,0.17,0,0;"/>
            </g>
            <g transform="matrix(1,0,-0.243117,1,583.684,113.482)">
                <rect x="779.751" y="697.959" width="59.116" height="65.45" style="fill:rgb(107,116,225);stroke:black;stroke-width:2.08px;stroke-dasharray:0,0.1,0,0;"/>
            </g>
            <g transform="matrix(1.17471,0,-0.285592,1.17471,466.875,-22.0194)">
                <circle cx="816.424" cy="737.362" r="20.789" style="fill:rgb(201,205,255);stroke:black;stroke-width:1.06px;stroke-dasharray:0,0.05,0,0;"/>
            </g>
            <g transform="matrix(1,0,-0.243117,1,583.058,112.218)">
                <circle cx="802.726" cy="722.419" r="1.833" style="fill:rgb(201,205,255);stroke:black;stroke-width:1.25px;stroke-dasharray:0,0.06,0,0;"/>
            </g>
            <g transform="matrix(1,0,-0.243117,1,598.091,112.218)">
                <circle cx="802.726" cy="722.419" r="1.833" style="fill:rgb(201,205,255);stroke:black;stroke-width:1.25px;stroke-dasharray:0,0.06,0,0;"/>
            </g>
            <g transform="matrix(0.432134,0,-0.105059,0.432134,895.412,526.953)">
                <path d="M940.469,745.889C940.469,757.831 930.774,767.526 918.832,767.526C906.89,767.526 897.195,757.831 897.195,745.889" style="fill:rgb(201,205,255);stroke:black;stroke-width:3.33px;stroke-dasharray:0,0.17,0,0;"/>
            </g>
            <g transform="matrix(0.44813,0,-0.106104,0.44813,807.908,406.03)">
                <text x="490.765px" y="667.68px" style="font-family:'ArialMT', 'Arial', sans-serif;font-size:29.167px;">GUESS WHO?</text>
            </g>
            <g transform="matrix(1,0,0,1,573.781,-113.246)">
                <path d="M721.389,768.151C725.851,761.319 733.564,756.801 742.325,756.801C756.116,756.801 767.313,767.998 767.313,781.789C767.313,789.9 763.44,797.113 757.444,801.679" style="fill:none;stroke:rgb(77,92,193);stroke-width:3.33px;stroke-dasharray:0,0.17,0,0;"/>
            </g>
            <g transform="matrix(0.39018,0,0,0.39018,951.077,390.34)">
                <text x="854.2px" y="727.966px" style="font-family:'Bahnschrift', sans-serif;font-size:50px;fill:rgb(77,92,193);">~250</text>
                <text x="960.523px" y="727.966px" style="font-family:'Bahnschrift', sans-serif;font-size:60.417px;fill:rgb(77,92,193);">°</text>
            </g>
        </g>
    </g>
</svg>
