<svg viewBox="0 0 652 269" xmlns="http://www.w3.org/2000/svg" fill-rule="evenodd" clip-rule="evenodd" stroke-linecap="round" stroke-linejoin="round" stroke-miterlimit="1.5"><path stroke="#000" stroke-width="5" stroke-dasharray="0,.25,0,0" fill="none" d="M707.067 682.456h533.09v225.768h-533.09z" transform="matrix(1 0 -.26484 1 -464.34 -641.888)"/><path d="M1132.77 908.224h107.39V682.456H707.067" stroke="#000" stroke-width="5" stroke-dasharray="0,.25,0,0" fill="none" transform="matrix(1 0 .24007 .90648 -808.92 -578.068)"/><path fill="#6b74e1" stroke="#000" stroke-width="2.08" stroke-dasharray="0,.1,0,0" d="M779.751 697.959h59.116v65.45h-59.116z" transform="matrix(1 0 -.24312 1 -551.301 -608.635)"/><circle cx="816.424" cy="737.362" r="20.789" fill="#c9cdff" stroke="#000" stroke-width="1.06" stroke-dasharray="0,.05,0,0" transform="matrix(1.17471 0 -.2856 1.17471 -668.11 -744.137)"/><circle cx="802.726" cy="722.419" r="1.833" fill="#c9cdff" stroke="#000" stroke-width="1.25" stroke-dasharray="0,.06,0,0" transform="matrix(1 0 -.24312 1 -551.928 -609.9)"/><circle cx="802.726" cy="722.419" r="1.833" fill="#c9cdff" stroke="#000" stroke-width="1.25" stroke-dasharray="0,.06,0,0" transform="matrix(1 0 -.24312 1 -536.894 -609.9)"/><path d="M940.469 745.889c0 11.942-9.695 21.637-21.637 21.637s-21.637-9.695-21.637-21.637" fill="#c9cdff" stroke="#000" stroke-width="3.33" stroke-dasharray="0,.17,0,0" transform="matrix(.43213 0 -.10506 .43213 -239.573 -195.164)"/><path fill="#6b74e1" stroke="#000" stroke-width="2.08" stroke-dasharray="0,.1,0,0" d="M779.751 697.959h59.116v65.45h-59.116z" transform="matrix(1 0 -.24312 1 -476.273 -608.635)"/><circle cx="816.424" cy="737.362" r="20.789" fill="#c9cdff" stroke="#000" stroke-width="1.06" stroke-dasharray="0,.05,0,0" transform="matrix(1.17471 0 -.2856 1.17471 -593.082 -744.137)"/><circle cx="802.726" cy="722.419" r="1.833" fill="#c9cdff" stroke="#000" stroke-width="1.25" stroke-dasharray="0,.06,0,0" transform="matrix(1 0 -.24312 1 -476.9 -609.9)"/><circle cx="802.726" cy="722.419" r="1.833" fill="#c9cdff" stroke="#000" stroke-width="1.25" stroke-dasharray="0,.06,0,0" transform="matrix(1 0 -.24312 1 -461.866 -609.9)"/><path d="M940.469 745.889c0 11.942-9.695 21.637-21.637 21.637s-21.637-9.695-21.637-21.637" fill="#c9cdff" stroke="#000" stroke-width="3.33" stroke-dasharray="0,.17,0,0" transform="matrix(.43213 0 -.10506 .43213 -164.545 -195.164)"/><path fill="#6b74e1" stroke="#000" stroke-width="2.08" stroke-dasharray="0,.1,0,0" d="M779.751 697.959h59.116v65.45h-59.116z" transform="matrix(1 0 -.24312 1 -401.245 -608.635)"/><circle cx="816.424" cy="737.362" r="20.789" fill="#c9cdff" stroke="#000" stroke-width="1.06" stroke-dasharray="0,.05,0,0" transform="matrix(1.17471 0 -.2856 1.17471 -518.054 -744.137)"/><circle cx="802.726" cy="722.419" r="1.833" fill="#c9cdff" stroke="#000" stroke-width="1.25" stroke-dasharray="0,.06,0,0" transform="matrix(1 0 -.24312 1 -401.871 -609.9)"/><circle cx="802.726" cy="722.419" r="1.833" fill="#c9cdff" stroke="#000" stroke-width="1.25" stroke-dasharray="0,.06,0,0" transform="matrix(1 0 -.24312 1 -386.838 -609.9)"/><path d="M940.469 745.889c0 11.942-9.695 21.637-21.637 21.637s-21.637-9.695-21.637-21.637" fill="#c9cdff" stroke="#000" stroke-width="3.33" stroke-dasharray="0,.17,0,0" transform="matrix(.43213 0 -.10506 .43213 -89.517 -195.164)"/><path fill="#6b74e1" stroke="#000" stroke-width="2.08" stroke-dasharray="0,.1,0,0" d="M779.751 697.959h59.116v65.45h-59.116z" transform="matrix(1 0 -.24312 1 -326.216 -608.635)"/><circle cx="816.424" cy="737.362" r="20.789" fill="#c9cdff" stroke="#000" stroke-width="1.06" stroke-dasharray="0,.05,0,0" transform="matrix(1.17471 0 -.2856 1.17471 -443.025 -744.137)"/><circle cx="802.726" cy="722.419" r="1.833" fill="#c9cdff" stroke="#000" stroke-width="1.25" stroke-dasharray="0,.06,0,0" transform="matrix(1 0 -.24312 1 -326.843 -609.9)"/><circle cx="802.726" cy="722.419" r="1.833" fill="#c9cdff" stroke="#000" stroke-width="1.25" stroke-dasharray="0,.06,0,0" transform="matrix(1 0 -.24312 1 -311.81 -609.9)"/><path d="M940.469 745.889c0 11.942-9.695 21.637-21.637 21.637s-21.637-9.695-21.637-21.637" fill="#c9cdff" stroke="#000" stroke-width="3.33" stroke-dasharray="0,.17,0,0" transform="matrix(.43213 0 -.10506 .43213 -14.488 -195.164)"/><path fill="#6b74e1" stroke="#000" stroke-width="2.08" stroke-dasharray="0,.1,0,0" d="M779.751 697.959h59.116v65.45h-59.116z" transform="matrix(1 0 -.24312 1 -251.188 -608.635)"/><circle cx="816.424" cy="737.362" r="20.789" fill="#c9cdff" stroke="#000" stroke-width="1.06" stroke-dasharray="0,.05,0,0" transform="matrix(1.17471 0 -.2856 1.17471 -367.997 -744.137)"/><circle cx="802.726" cy="722.419" r="1.833" fill="#c9cdff" stroke="#000" stroke-width="1.25" stroke-dasharray="0,.06,0,0" transform="matrix(1 0 -.24312 1 -251.814 -609.9)"/><circle cx="802.726" cy="722.419" r="1.833" fill="#c9cdff" stroke="#000" stroke-width="1.25" stroke-dasharray="0,.06,0,0" transform="matrix(1 0 -.24312 1 -236.781 -609.9)"/><path d="M940.469 745.889c0 11.942-9.695 21.637-21.637 21.637s-21.637-9.695-21.637-21.637" fill="#c9cdff" stroke="#000" stroke-width="3.33" stroke-dasharray="0,.17,0,0" transform="matrix(.43213 0 -.10506 .43213 60.54 -195.164)"/><path fill="#6b74e1" stroke="#000" stroke-width="2.08" stroke-dasharray="0,.1,0,0" d="M779.751 697.959h59.116v65.45h-59.116z" transform="matrix(1 0 -.24312 1 -176.16 -608.635)"/><circle cx="816.424" cy="737.362" r="20.789" fill="#c9cdff" stroke="#000" stroke-width="1.06" stroke-dasharray="0,.05,0,0" transform="matrix(1.17471 0 -.2856 1.17471 -292.97 -744.137)"/><circle cx="802.726" cy="722.419" r="1.833" fill="#c9cdff" stroke="#000" stroke-width="1.25" stroke-dasharray="0,.06,0,0" transform="matrix(1 0 -.24312 1 -176.786 -609.9)"/><circle cx="802.726" cy="722.419" r="1.833" fill="#c9cdff" stroke="#000" stroke-width="1.25" stroke-dasharray="0,.06,0,0" transform="matrix(1 0 -.24312 1 -161.753 -609.9)"/><path d="M940.469 745.889c0 11.942-9.695 21.637-21.637 21.637s-21.637-9.695-21.637-21.637" fill="#c9cdff" stroke="#000" stroke-width="3.33" stroke-dasharray="0,.17,0,0" transform="matrix(.43213 0 -.10506 .43213 135.568 -195.164)"/><path fill="#6b74e1" stroke="#000" stroke-width="2.08" stroke-dasharray="0,.1,0,0" d="M779.751 697.959h59.116v65.45h-59.116z" transform="matrix(1 0 -.24312 1 -101.131 -608.635)"/><circle cx="816.424" cy="737.362" r="20.789" fill="#c9cdff" stroke="#000" stroke-width="1.06" stroke-dasharray="0,.05,0,0" transform="matrix(1.17471 0 -.2856 1.17471 -217.94 -744.137)"/><circle cx="802.726" cy="722.419" r="1.833" fill="#c9cdff" stroke="#000" stroke-width="1.25" stroke-dasharray="0,.06,0,0" transform="matrix(1 0 -.24312 1 -101.758 -609.9)"/><circle cx="802.726" cy="722.419" r="1.833" fill="#c9cdff" stroke="#000" stroke-width="1.25" stroke-dasharray="0,.06,0,0" transform="matrix(1 0 -.24312 1 -86.724 -609.9)"/><path d="M940.469 745.889c0 11.942-9.695 21.637-21.637 21.637s-21.637-9.695-21.637-21.637" fill="#c9cdff" stroke="#000" stroke-width="3.33" stroke-dasharray="0,.17,0,0" transform="matrix(.43213 0 -.10506 .43213 210.597 -195.164)"/><path fill="#6b74e1" stroke="#000" stroke-width="2.08" stroke-dasharray="0,.1,0,0" d="M779.751 697.959h59.116v65.45h-59.116z" transform="matrix(1 0 -.24312 1 -571.36 -528.406)"/><circle cx="816.424" cy="737.362" r="20.789" fill="#c9cdff" stroke="#000" stroke-width="1.06" stroke-dasharray="0,.05,0,0" transform="matrix(1.17471 0 -.2856 1.17471 -688.168 -663.908)"/><circle cx="802.726" cy="722.419" r="1.833" fill="#c9cdff" stroke="#000" stroke-width="1.25" stroke-dasharray="0,.06,0,0" transform="matrix(1 0 -.24312 1 -571.985 -529.67)"/><circle cx="802.726" cy="722.419" r="1.833" fill="#c9cdff" stroke="#000" stroke-width="1.25" stroke-dasharray="0,.06,0,0" transform="matrix(1 0 -.24312 1 -556.951 -529.67)"/><path d="M940.469 745.889c0 11.942-9.695 21.637-21.637 21.637s-21.637-9.695-21.637-21.637" fill="#c9cdff" stroke="#000" stroke-width="3.33" stroke-dasharray="0,.17,0,0" transform="matrix(.43213 0 -.10506 .43213 -259.63 -114.935)"/><path fill="#6b74e1" stroke="#000" stroke-width="2.08" stroke-dasharray="0,.1,0,0" d="M779.751 697.959h59.116v65.45h-59.116z" transform="matrix(1 0 -.24312 1 -496.33 -528.406)"/><circle cx="816.424" cy="737.362" r="20.789" fill="#c9cdff" stroke="#000" stroke-width="1.06" stroke-dasharray="0,.05,0,0" transform="matrix(1.17471 0 -.2856 1.17471 -613.14 -663.908)"/><circle cx="802.726" cy="722.419" r="1.833" fill="#c9cdff" stroke="#000" stroke-width="1.25" stroke-dasharray="0,.06,0,0" transform="matrix(1 0 -.24312 1 -496.957 -529.67)"/><circle cx="802.726" cy="722.419" r="1.833" fill="#c9cdff" stroke="#000" stroke-width="1.25" stroke-dasharray="0,.06,0,0" transform="matrix(1 0 -.24312 1 -481.923 -529.67)"/><path d="M940.469 745.889c0 11.942-9.695 21.637-21.637 21.637s-21.637-9.695-21.637-21.637" fill="#c9cdff" stroke="#000" stroke-width="3.33" stroke-dasharray="0,.17,0,0" transform="matrix(.43213 0 -.10506 .43213 -184.602 -114.935)"/><path fill="#6b74e1" stroke="#000" stroke-width="2.08" stroke-dasharray="0,.1,0,0" d="M779.751 697.959h59.116v65.45h-59.116z" transform="matrix(1 0 -.24312 1 -421.302 -528.406)"/><circle cx="816.424" cy="737.362" r="20.789" fill="#c9cdff" stroke="#000" stroke-width="1.06" stroke-dasharray="0,.05,0,0" transform="matrix(1.17471 0 -.2856 1.17471 -538.111 -663.908)"/><circle cx="802.726" cy="722.419" r="1.833" fill="#c9cdff" stroke="#000" stroke-width="1.25" stroke-dasharray="0,.06,0,0" transform="matrix(1 0 -.24312 1 -421.928 -529.67)"/><circle cx="802.726" cy="722.419" r="1.833" fill="#c9cdff" stroke="#000" stroke-width="1.25" stroke-dasharray="0,.06,0,0" transform="matrix(1 0 -.24312 1 -406.895 -529.67)"/><path d="M940.469 745.889c0 11.942-9.695 21.637-21.637 21.637s-21.637-9.695-21.637-21.637" fill="#c9cdff" stroke="#000" stroke-width="3.33" stroke-dasharray="0,.17,0,0" transform="matrix(.43213 0 -.10506 .43213 -109.574 -114.935)"/><path fill="#6b74e1" stroke="#000" stroke-width="2.08" stroke-dasharray="0,.1,0,0" d="M779.751 697.959h59.116v65.45h-59.116z" transform="matrix(1 0 -.24312 1 -346.274 -528.406)"/><circle cx="816.424" cy="737.362" r="20.789" fill="#c9cdff" stroke="#000" stroke-width="1.06" stroke-dasharray="0,.05,0,0" transform="matrix(1.17471 0 -.2856 1.17471 -463.083 -663.908)"/><circle cx="802.726" cy="722.419" r="1.833" fill="#c9cdff" stroke="#000" stroke-width="1.25" stroke-dasharray="0,.06,0,0" transform="matrix(1 0 -.24312 1 -346.9 -529.67)"/><circle cx="802.726" cy="722.419" r="1.833" fill="#c9cdff" stroke="#000" stroke-width="1.25" stroke-dasharray="0,.06,0,0" transform="matrix(1 0 -.24312 1 -331.866 -529.67)"/><path d="M940.469 745.889c0 11.942-9.695 21.637-21.637 21.637s-21.637-9.695-21.637-21.637" fill="#c9cdff" stroke="#000" stroke-width="3.33" stroke-dasharray="0,.17,0,0" transform="matrix(.43213 0 -.10506 .43213 -34.546 -114.935)"/><path fill="#6b74e1" stroke="#000" stroke-width="2.08" stroke-dasharray="0,.1,0,0" d="M779.751 697.959h59.116v65.45h-59.116z" transform="matrix(1 0 -.24312 1 -271.245 -528.406)"/><circle cx="816.424" cy="737.362" r="20.789" fill="#c9cdff" stroke="#000" stroke-width="1.06" stroke-dasharray="0,.05,0,0" transform="matrix(1.17471 0 -.2856 1.17471 -388.054 -663.908)"/><circle cx="802.726" cy="722.419" r="1.833" fill="#c9cdff" stroke="#000" stroke-width="1.25" stroke-dasharray="0,.06,0,0" transform="matrix(1 0 -.24312 1 -271.872 -529.67)"/><circle cx="802.726" cy="722.419" r="1.833" fill="#c9cdff" stroke="#000" stroke-width="1.25" stroke-dasharray="0,.06,0,0" transform="matrix(1 0 -.24312 1 -256.838 -529.67)"/><path d="M940.469 745.889c0 11.942-9.695 21.637-21.637 21.637s-21.637-9.695-21.637-21.637" fill="#c9cdff" stroke="#000" stroke-width="3.33" stroke-dasharray="0,.17,0,0" transform="matrix(.43213 0 -.10506 .43213 40.483 -114.935)"/><path fill="#6b74e1" stroke="#000" stroke-width="2.08" stroke-dasharray="0,.1,0,0" d="M779.751 697.959h59.116v65.45h-59.116z" transform="matrix(1 0 -.24312 1 -196.217 -528.406)"/><circle cx="816.424" cy="737.362" r="20.789" fill="#c9cdff" stroke="#000" stroke-width="1.06" stroke-dasharray="0,.05,0,0" transform="matrix(1.17471 0 -.2856 1.17471 -313.026 -663.908)"/><circle cx="802.726" cy="722.419" r="1.833" fill="#c9cdff" stroke="#000" stroke-width="1.25" stroke-dasharray="0,.06,0,0" transform="matrix(1 0 -.24312 1 -196.843 -529.67)"/><circle cx="802.726" cy="722.419" r="1.833" fill="#c9cdff" stroke="#000" stroke-width="1.25" stroke-dasharray="0,.06,0,0" transform="matrix(1 0 -.24312 1 -181.81 -529.67)"/><path d="M940.469 745.889c0 11.942-9.695 21.637-21.637 21.637s-21.637-9.695-21.637-21.637" fill="#c9cdff" stroke="#000" stroke-width="3.33" stroke-dasharray="0,.17,0,0" transform="matrix(.43213 0 -.10506 .43213 115.51 -114.935)"/><path fill="#6b74e1" stroke="#000" stroke-width="2.08" stroke-dasharray="0,.1,0,0" d="M779.751 697.959h59.116v65.45h-59.116z" transform="matrix(1 0 -.24312 1 -121.19 -528.406)"/><circle cx="816.424" cy="737.362" r="20.789" fill="#c9cdff" stroke="#000" stroke-width="1.06" stroke-dasharray="0,.05,0,0" transform="matrix(1.17471 0 -.2856 1.17471 -237.998 -663.908)"/><circle cx="802.726" cy="722.419" r="1.833" fill="#c9cdff" stroke="#000" stroke-width="1.25" stroke-dasharray="0,.06,0,0" transform="matrix(1 0 -.24312 1 -121.815 -529.67)"/><circle cx="802.726" cy="722.419" r="1.833" fill="#c9cdff" stroke="#000" stroke-width="1.25" stroke-dasharray="0,.06,0,0" transform="matrix(1 0 -.24312 1 -106.782 -529.67)"/><path d="M940.469 745.889c0 11.942-9.695 21.637-21.637 21.637s-21.637-9.695-21.637-21.637" fill="#c9cdff" stroke="#000" stroke-width="3.33" stroke-dasharray="0,.17,0,0" transform="matrix(.43213 0 -.10506 .43213 190.539 -114.935)"/><text x="340.563" y="667.68" font-family="'ArialMT','Arial',sans-serif" font-size="29.167" transform="matrix(1 0 -.23677 1 12.355 -592.8)">GUESS WHO?</text><path d="M590.297 13.017c4.462-6.832 12.175-11.35 20.936-11.35 13.79 0 24.988 11.197 24.988 24.988 0 8.11-3.873 15.324-9.87 19.89" fill="none" stroke="#4d5cc1" stroke-width="3.33" stroke-dasharray="0,.17,0,0"/><g font-family="'Bahnschrift',sans-serif" fill="#4d5cc1"><text x="854.2" y="727.966" font-size="50" transform="translate(246.204 -251.548) scale(.39018)">~250</text><text x="960.523" y="727.966" font-size="60.417" transform="translate(246.204 -251.548) scale(.39018)">°</text></g></svg>