<svg viewBox="0 0 1455 600" xmlns="http://www.w3.org/2000/svg" fill-rule="evenodd" clip-rule="evenodd" stroke-linecap="round" stroke-linejoin="round" stroke-miterlimit="1.5"><path stroke="#000" stroke-width="5" stroke-dasharray="0,.25,0,0" fill="none" d="M707.067 682.456h533.09v225.768h-533.09z" transform="matrix(2.23149 0 -.59099 2.23149 -1036.171 -1432.37)"/><path d="M1132.77 908.224h107.39V682.456H707.067" stroke="#000" stroke-width="5" stroke-dasharray="0,.25,0,0" fill="none" transform="matrix(2.23149 0 .53572 2.02281 -1805.1 -1289.955)"/><path fill="#6b74e1" stroke="#000" stroke-width="2.08" stroke-dasharray="0,.1,0,0" d="M779.751 697.959h59.116v65.45h-59.116z" transform="matrix(2.23149 0 -.54251 2.23149 -1230.226 -1358.166)"/><circle cx="816.424" cy="737.362" r="20.789" fill="#c9cdff" stroke="#000" stroke-width="1.06" stroke-dasharray="0,.05,0,0" transform="matrix(2.62135 0 -.6373 2.62135 -1490.885 -1660.538)"/><circle cx="802.726" cy="722.419" r="1.833" fill="#c9cdff" stroke="#000" stroke-width="1.25" stroke-dasharray="0,.06,0,0" transform="matrix(2.23149 0 -.54251 2.23149 -1231.625 -1360.988)"/><circle cx="802.726" cy="722.419" r="1.833" fill="#c9cdff" stroke="#000" stroke-width="1.25" stroke-dasharray="0,.06,0,0" transform="matrix(2.23149 0 -.54251 2.23149 -1198.077 -1360.988)"/><path d="M940.469 745.889c0 11.942-9.695 21.637-21.637 21.637s-21.637-9.695-21.637-21.637" fill="#c9cdff" stroke="#000" stroke-width="3.33" stroke-dasharray="0,.17,0,0" transform="matrix(.9643 0 -.23444 .9643 -534.608 -435.51)"/><path fill="#6b74e1" stroke="#000" stroke-width="2.08" stroke-dasharray="0,.1,0,0" d="M779.751 697.959h59.116v65.45h-59.116z" transform="matrix(2.23149 0 -.54251 2.23149 -1062.802 -1358.166)"/><circle cx="816.424" cy="737.362" r="20.789" fill="#c9cdff" stroke="#000" stroke-width="1.06" stroke-dasharray="0,.05,0,0" transform="matrix(2.62135 0 -.6373 2.62135 -1323.46 -1660.538)"/><circle cx="802.726" cy="722.419" r="1.833" fill="#c9cdff" stroke="#000" stroke-width="1.25" stroke-dasharray="0,.06,0,0" transform="matrix(2.23149 0 -.54251 2.23149 -1064.199 -1360.988)"/><circle cx="802.726" cy="722.419" r="1.833" fill="#c9cdff" stroke="#000" stroke-width="1.25" stroke-dasharray="0,.06,0,0" transform="matrix(2.23149 0 -.54251 2.23149 -1030.653 -1360.988)"/><path d="M940.469 745.889c0 11.942-9.695 21.637-21.637 21.637s-21.637-9.695-21.637-21.637" fill="#c9cdff" stroke="#000" stroke-width="3.33" stroke-dasharray="0,.17,0,0" transform="matrix(.9643 0 -.23444 .9643 -367.184 -435.51)"/><path fill="#6b74e1" stroke="#000" stroke-width="2.08" stroke-dasharray="0,.1,0,0" d="M779.751 697.959h59.116v65.45h-59.116z" transform="matrix(2.23149 0 -.54251 2.23149 -895.378 -1358.166)"/><circle cx="816.424" cy="737.362" r="20.789" fill="#c9cdff" stroke="#000" stroke-width="1.06" stroke-dasharray="0,.05,0,0" transform="matrix(2.62135 0 -.6373 2.62135 -1156.036 -1660.538)"/><circle cx="802.726" cy="722.419" r="1.833" fill="#c9cdff" stroke="#000" stroke-width="1.25" stroke-dasharray="0,.06,0,0" transform="matrix(2.23149 0 -.54251 2.23149 -896.774 -1360.988)"/><circle cx="802.726" cy="722.419" r="1.833" fill="#c9cdff" stroke="#000" stroke-width="1.25" stroke-dasharray="0,.06,0,0" transform="matrix(2.23149 0 -.54251 2.23149 -863.228 -1360.988)"/><path d="M940.469 745.889c0 11.942-9.695 21.637-21.637 21.637s-21.637-9.695-21.637-21.637" fill="#c9cdff" stroke="#000" stroke-width="3.33" stroke-dasharray="0,.17,0,0" transform="matrix(.9643 0 -.23444 .9643 -199.76 -435.51)"/><path fill="#6b74e1" stroke="#000" stroke-width="2.08" stroke-dasharray="0,.1,0,0" d="M779.751 697.959h59.116v65.45h-59.116z" transform="matrix(2.23149 0 -.54251 2.23149 -727.951 -1358.166)"/><circle cx="816.424" cy="737.362" r="20.789" fill="#c9cdff" stroke="#000" stroke-width="1.06" stroke-dasharray="0,.05,0,0" transform="matrix(2.62135 0 -.6373 2.62135 -988.61 -1660.538)"/><circle cx="802.726" cy="722.419" r="1.833" fill="#c9cdff" stroke="#000" stroke-width="1.25" stroke-dasharray="0,.06,0,0" transform="matrix(2.23149 0 -.54251 2.23149 -729.35 -1360.988)"/><circle cx="802.726" cy="722.419" r="1.833" fill="#c9cdff" stroke="#000" stroke-width="1.25" stroke-dasharray="0,.06,0,0" transform="matrix(2.23149 0 -.54251 2.23149 -695.802 -1360.988)"/><path d="M940.469 745.889c0 11.942-9.695 21.637-21.637 21.637s-21.637-9.695-21.637-21.637" fill="#c9cdff" stroke="#000" stroke-width="3.33" stroke-dasharray="0,.17,0,0" transform="matrix(.9643 0 -.23444 .9643 -32.333 -435.51)"/><path fill="#6b74e1" stroke="#000" stroke-width="2.08" stroke-dasharray="0,.1,0,0" d="M779.751 697.959h59.116v65.45h-59.116z" transform="matrix(2.23149 0 -.54251 2.23149 -560.527 -1358.166)"/><circle cx="816.424" cy="737.362" r="20.789" fill="#c9cdff" stroke="#000" stroke-width="1.06" stroke-dasharray="0,.05,0,0" transform="matrix(2.62135 0 -.6373 2.62135 -821.185 -1660.538)"/><circle cx="802.726" cy="722.419" r="1.833" fill="#c9cdff" stroke="#000" stroke-width="1.25" stroke-dasharray="0,.06,0,0" transform="matrix(2.23149 0 -.54251 2.23149 -561.924 -1360.988)"/><circle cx="802.726" cy="722.419" r="1.833" fill="#c9cdff" stroke="#000" stroke-width="1.25" stroke-dasharray="0,.06,0,0" transform="matrix(2.23149 0 -.54251 2.23149 -528.378 -1360.988)"/><path d="M940.469 745.889c0 11.942-9.695 21.637-21.637 21.637s-21.637-9.695-21.637-21.637" fill="#c9cdff" stroke="#000" stroke-width="3.33" stroke-dasharray="0,.17,0,0" transform="matrix(.9643 0 -.23444 .9643 135.091 -435.51)"/><path fill="#6b74e1" stroke="#000" stroke-width="2.08" stroke-dasharray="0,.1,0,0" d="M779.751 697.959h59.116v65.45h-59.116z" transform="matrix(2.23149 0 -.54251 2.23149 -393.103 -1358.166)"/><circle cx="816.424" cy="737.362" r="20.789" fill="#c9cdff" stroke="#000" stroke-width="1.06" stroke-dasharray="0,.05,0,0" transform="matrix(2.62135 0 -.6373 2.62135 -653.76 -1660.538)"/><circle cx="802.726" cy="722.419" r="1.833" fill="#c9cdff" stroke="#000" stroke-width="1.25" stroke-dasharray="0,.06,0,0" transform="matrix(2.23149 0 -.54251 2.23149 -394.5 -1360.988)"/><circle cx="802.726" cy="722.419" r="1.833" fill="#c9cdff" stroke="#000" stroke-width="1.25" stroke-dasharray="0,.06,0,0" transform="matrix(2.23149 0 -.54251 2.23149 -360.954 -1360.988)"/><path d="M940.469 745.889c0 11.942-9.695 21.637-21.637 21.637s-21.637-9.695-21.637-21.637" fill="#c9cdff" stroke="#000" stroke-width="3.33" stroke-dasharray="0,.17,0,0" transform="matrix(.9643 0 -.23444 .9643 302.515 -435.51)"/><path fill="#6b74e1" stroke="#000" stroke-width="2.08" stroke-dasharray="0,.1,0,0" d="M779.751 697.959h59.116v65.45h-59.116z" transform="matrix(2.23149 0 -.54251 2.23149 -225.676 -1358.166)"/><circle cx="816.424" cy="737.362" r="20.789" fill="#c9cdff" stroke="#000" stroke-width="1.06" stroke-dasharray="0,.05,0,0" transform="matrix(2.62135 0 -.6373 2.62135 -486.334 -1660.538)"/><circle cx="802.726" cy="722.419" r="1.833" fill="#c9cdff" stroke="#000" stroke-width="1.25" stroke-dasharray="0,.06,0,0" transform="matrix(2.23149 0 -.54251 2.23149 -227.075 -1360.988)"/><circle cx="802.726" cy="722.419" r="1.833" fill="#c9cdff" stroke="#000" stroke-width="1.25" stroke-dasharray="0,.06,0,0" transform="matrix(2.23149 0 -.54251 2.23149 -193.527 -1360.988)"/><path d="M940.469 745.889c0 11.942-9.695 21.637-21.637 21.637s-21.637-9.695-21.637-21.637" fill="#c9cdff" stroke="#000" stroke-width="3.33" stroke-dasharray="0,.17,0,0" transform="matrix(.9643 0 -.23444 .9643 469.942 -435.51)"/><path fill="#6b74e1" stroke="#000" stroke-width="2.08" stroke-dasharray="0,.1,0,0" d="M779.751 697.959h59.116v65.45h-59.116z" transform="matrix(2.23149 0 -.54251 2.23149 -1274.985 -1179.136)"/><circle cx="816.424" cy="737.362" r="20.789" fill="#c9cdff" stroke="#000" stroke-width="1.06" stroke-dasharray="0,.05,0,0" transform="matrix(2.62135 0 -.6373 2.62135 -1535.642 -1481.506)"/><circle cx="802.726" cy="722.419" r="1.833" fill="#c9cdff" stroke="#000" stroke-width="1.25" stroke-dasharray="0,.06,0,0" transform="matrix(2.23149 0 -.54251 2.23149 -1276.382 -1181.957)"/><circle cx="802.726" cy="722.419" r="1.833" fill="#c9cdff" stroke="#000" stroke-width="1.25" stroke-dasharray="0,.06,0,0" transform="matrix(2.23149 0 -.54251 2.23149 -1242.834 -1181.957)"/><path d="M940.469 745.889c0 11.942-9.695 21.637-21.637 21.637s-21.637-9.695-21.637-21.637" fill="#c9cdff" stroke="#000" stroke-width="3.33" stroke-dasharray="0,.17,0,0" transform="matrix(.9643 0 -.23444 .9643 -579.365 -256.48)"/><path fill="#6b74e1" stroke="#000" stroke-width="2.08" stroke-dasharray="0,.1,0,0" d="M779.751 697.959h59.116v65.45h-59.116z" transform="matrix(2.23149 0 -.54251 2.23149 -1107.559 -1179.136)"/><circle cx="816.424" cy="737.362" r="20.789" fill="#c9cdff" stroke="#000" stroke-width="1.06" stroke-dasharray="0,.05,0,0" transform="matrix(2.62135 0 -.6373 2.62135 -1368.217 -1481.506)"/><circle cx="802.726" cy="722.419" r="1.833" fill="#c9cdff" stroke="#000" stroke-width="1.25" stroke-dasharray="0,.06,0,0" transform="matrix(2.23149 0 -.54251 2.23149 -1108.958 -1181.957)"/><circle cx="802.726" cy="722.419" r="1.833" fill="#c9cdff" stroke="#000" stroke-width="1.25" stroke-dasharray="0,.06,0,0" transform="matrix(2.23149 0 -.54251 2.23149 -1075.41 -1181.957)"/><path d="M940.469 745.889c0 11.942-9.695 21.637-21.637 21.637s-21.637-9.695-21.637-21.637" fill="#c9cdff" stroke="#000" stroke-width="3.33" stroke-dasharray="0,.17,0,0" transform="matrix(.9643 0 -.23444 .9643 -411.94 -256.48)"/><path fill="#6b74e1" stroke="#000" stroke-width="2.08" stroke-dasharray="0,.1,0,0" d="M779.751 697.959h59.116v65.45h-59.116z" transform="matrix(2.23149 0 -.54251 2.23149 -940.135 -1179.136)"/><circle cx="816.424" cy="737.362" r="20.789" fill="#c9cdff" stroke="#000" stroke-width="1.06" stroke-dasharray="0,.05,0,0" transform="matrix(2.62135 0 -.6373 2.62135 -1200.793 -1481.506)"/><circle cx="802.726" cy="722.419" r="1.833" fill="#c9cdff" stroke="#000" stroke-width="1.25" stroke-dasharray="0,.06,0,0" transform="matrix(2.23149 0 -.54251 2.23149 -941.531 -1181.957)"/><circle cx="802.726" cy="722.419" r="1.833" fill="#c9cdff" stroke="#000" stroke-width="1.25" stroke-dasharray="0,.06,0,0" transform="matrix(2.23149 0 -.54251 2.23149 -907.985 -1181.957)"/><path d="M940.469 745.889c0 11.942-9.695 21.637-21.637 21.637s-21.637-9.695-21.637-21.637" fill="#c9cdff" stroke="#000" stroke-width="3.33" stroke-dasharray="0,.17,0,0" transform="matrix(.9643 0 -.23444 .9643 -244.517 -256.48)"/><path fill="#6b74e1" stroke="#000" stroke-width="2.08" stroke-dasharray="0,.1,0,0" d="M779.751 697.959h59.116v65.45h-59.116z" transform="matrix(2.23149 0 -.54251 2.23149 -772.71 -1179.136)"/><circle cx="816.424" cy="737.362" r="20.789" fill="#c9cdff" stroke="#000" stroke-width="1.06" stroke-dasharray="0,.05,0,0" transform="matrix(2.62135 0 -.6373 2.62135 -1033.368 -1481.506)"/><circle cx="802.726" cy="722.419" r="1.833" fill="#c9cdff" stroke="#000" stroke-width="1.25" stroke-dasharray="0,.06,0,0" transform="matrix(2.23149 0 -.54251 2.23149 -774.107 -1181.957)"/><circle cx="802.726" cy="722.419" r="1.833" fill="#c9cdff" stroke="#000" stroke-width="1.25" stroke-dasharray="0,.06,0,0" transform="matrix(2.23149 0 -.54251 2.23149 -740.559 -1181.957)"/><path d="M940.469 745.889c0 11.942-9.695 21.637-21.637 21.637s-21.637-9.695-21.637-21.637" fill="#c9cdff" stroke="#000" stroke-width="3.33" stroke-dasharray="0,.17,0,0" transform="matrix(.9643 0 -.23444 .9643 -77.092 -256.48)"/><path fill="#6b74e1" stroke="#000" stroke-width="2.08" stroke-dasharray="0,.1,0,0" d="M779.751 697.959h59.116v65.45h-59.116z" transform="matrix(2.23149 0 -.54251 2.23149 -605.284 -1179.136)"/><circle cx="816.424" cy="737.362" r="20.789" fill="#c9cdff" stroke="#000" stroke-width="1.06" stroke-dasharray="0,.05,0,0" transform="matrix(2.62135 0 -.6373 2.62135 -865.942 -1481.506)"/><circle cx="802.726" cy="722.419" r="1.833" fill="#c9cdff" stroke="#000" stroke-width="1.25" stroke-dasharray="0,.06,0,0" transform="matrix(2.23149 0 -.54251 2.23149 -606.683 -1181.957)"/><circle cx="802.726" cy="722.419" r="1.833" fill="#c9cdff" stroke="#000" stroke-width="1.25" stroke-dasharray="0,.06,0,0" transform="matrix(2.23149 0 -.54251 2.23149 -573.135 -1181.957)"/><path d="M940.469 745.889c0 11.942-9.695 21.637-21.637 21.637s-21.637-9.695-21.637-21.637" fill="#c9cdff" stroke="#000" stroke-width="3.33" stroke-dasharray="0,.17,0,0" transform="matrix(.9643 0 -.23444 .9643 90.334 -256.48)"/><path fill="#6b74e1" stroke="#000" stroke-width="2.08" stroke-dasharray="0,.1,0,0" d="M779.751 697.959h59.116v65.45h-59.116z" transform="matrix(2.23149 0 -.54251 2.23149 -437.86 -1179.136)"/><circle cx="816.424" cy="737.362" r="20.789" fill="#c9cdff" stroke="#000" stroke-width="1.06" stroke-dasharray="0,.05,0,0" transform="matrix(2.62135 0 -.6373 2.62135 -698.518 -1481.506)"/><circle cx="802.726" cy="722.419" r="1.833" fill="#c9cdff" stroke="#000" stroke-width="1.25" stroke-dasharray="0,.06,0,0" transform="matrix(2.23149 0 -.54251 2.23149 -439.257 -1181.957)"/><circle cx="802.726" cy="722.419" r="1.833" fill="#c9cdff" stroke="#000" stroke-width="1.25" stroke-dasharray="0,.06,0,0" transform="matrix(2.23149 0 -.54251 2.23149 -405.71 -1181.957)"/><path d="M940.469 745.889c0 11.942-9.695 21.637-21.637 21.637s-21.637-9.695-21.637-21.637" fill="#c9cdff" stroke="#000" stroke-width="3.33" stroke-dasharray="0,.17,0,0" transform="matrix(.9643 0 -.23444 .9643 257.758 -256.48)"/><path fill="#6b74e1" stroke="#000" stroke-width="2.08" stroke-dasharray="0,.1,0,0" d="M779.751 697.959h59.116v65.45h-59.116z" transform="matrix(2.23149 0 -.54251 2.23149 -270.435 -1179.136)"/><circle cx="816.424" cy="737.362" r="20.789" fill="#c9cdff" stroke="#000" stroke-width="1.06" stroke-dasharray="0,.05,0,0" transform="matrix(2.62135 0 -.6373 2.62135 -531.094 -1481.506)"/><circle cx="802.726" cy="722.419" r="1.833" fill="#c9cdff" stroke="#000" stroke-width="1.25" stroke-dasharray="0,.06,0,0" transform="matrix(2.23149 0 -.54251 2.23149 -271.832 -1181.957)"/><circle cx="802.726" cy="722.419" r="1.833" fill="#c9cdff" stroke="#000" stroke-width="1.25" stroke-dasharray="0,.06,0,0" transform="matrix(2.23149 0 -.54251 2.23149 -238.286 -1181.957)"/><path d="M940.469 745.889c0 11.942-9.695 21.637-21.637 21.637s-21.637-9.695-21.637-21.637" fill="#c9cdff" stroke="#000" stroke-width="3.33" stroke-dasharray="0,.17,0,0" transform="matrix(.9643 0 -.23444 .9643 425.183 -256.48)"/><text x="490.765" y="667.68" font-family="'ArialMT','Arial',sans-serif" font-size="29.167" transform="matrix(1 0 -.23677 1 229.918 -526.318)">GUESS WHO?</text><path d="M1317.239 29.044c9.956-15.246 27.168-25.327 46.718-25.327 30.774 0 55.76 24.986 55.76 55.76 0 18.1-8.642 34.195-22.022 44.384" fill="none" stroke="#4d5cc1" stroke-width="7.4308617" stroke-dasharray="0,.17,0,0"/><g font-family="'Bahnschrift',sans-serif" fill="#4d5cc1"><text x="854.2" y="727.966" font-size="50" transform="matrix(.87068 0 0 .87068 549.398 -561.33)">~250</text><text x="960.523" y="727.966" font-size="60.417" transform="matrix(.87068 0 0 .87068 549.398 -561.33)">°</text></g></svg>